<?xml version="1.0" encoding="UTF-8" standalone="no"?>
<!-- Created with Inkscape (http://www.inkscape.org/) -->

<svg
   xmlns:dc="http://purl.org/dc/elements/1.1/"
   xmlns:cc="http://creativecommons.org/ns#"
   xmlns:rdf="http://www.w3.org/1999/02/22-rdf-syntax-ns#"
   xmlns:svg="http://www.w3.org/2000/svg"
   xmlns="http://www.w3.org/2000/svg"
   xmlns:sodipodi="http://sodipodi.sourceforge.net/DTD/sodipodi-0.dtd"
   xmlns:inkscape="http://www.inkscape.org/namespaces/inkscape"
   width="589.8222"
   height="82.290001"
   id="svg2"
   version="1.1"
   inkscape:version="0.48.5 r10040"
   sodipodi:docname="рисунок.svg">
  <defs
     id="defs4" />
  <sodipodi:namedview
     id="base"
     pagecolor="#ffffff"
     bordercolor="#666666"
     borderopacity="1.0"
     inkscape:pageopacity="0.0"
     inkscape:pageshadow="2"
     inkscape:zoom="0.70710678"
     inkscape:cx="-357.98564"
     inkscape:cy="39.138995"
     inkscape:document-units="px"
     inkscape:current-layer="layer1"
     showgrid="false"
     inkscape:window-width="1920"
     inkscape:window-height="1013"
     inkscape:window-x="0"
     inkscape:window-y="27"
     inkscape:window-maximized="1"
     fit-margin-top="0"
     fit-margin-left="0"
     fit-margin-right="0"
     fit-margin-bottom="0" />
  <metadata
     id="metadata7">
    <rdf:RDF>
      <cc:Work
         rdf:about="">
        <dc:format>image/svg+xml</dc:format>
        <dc:type
           rdf:resource="http://purl.org/dc/dcmitype/StillImage" />
        <dc:title></dc:title>
      </cc:Work>
    </rdf:RDF>
  </metadata>
  <g
     inkscape:label="Layer 1"
     inkscape:groupmode="layer"
     id="layer1"
     transform="translate(-61.74625,-470.7948)">
    <g
       style="font-size:130px;font-style:normal;font-variant:normal;font-weight:normal;font-stretch:normal;text-align:start;line-height:125%;letter-spacing:0px;word-spacing:0px;writing-mode:lr-tb;text-anchor:start;fill:#000000;fill-opacity:1;stroke:none;font-family:Latin Modern Mono Prop Light;-inkscape-font-specification:'Latin Modern Mono Prop Light,'"
       id="flowRoot3073">
      <path
         d="m 193.43625,475.2148 c 0,-2.99 -2.73,-2.99 -4.29,-2.99 l -18.07,0 c -1.69,0 -4.29,0 -4.29,2.99 0,2.73 2.86,2.73 4.29,2.73 l 7.28,0 -20.8,69.03 -2.6,0 -21.19,-71.11 c -1.17,-3.64 -3.64,-3.64 -6.11,-3.64 -2.99,0 -4.94,0 -6.11,3.64 l -21.45,71.11 -2.6,0 -20.67,-69.03 7.28,0 c 1.559998,0 4.29,0 4.29,-2.73 0,-2.99 -2.730002,-2.99 -4.29,-2.99 l -18.07,0 c -1.559998,0 -4.29,0 -4.29,2.86 0,2.86 2.730002,2.86 4.29,2.86 l 5.46,0 21.84,72.54 c 1.169999,2.21 3.640002,2.21 5.46,2.21 3.25,0 4.94,0 6.11,-4.03 l 21.32,-70.72 2.6,0 21.45,70.59 c 1.17,3.38 1.95,4.16 5.98,4.16 2.47,0 5.07,0 6.11,-3.64 l 21.32,-71.11 5.46,0 c 1.56,0 4.29,0 4.29,-2.73"
         style="fill:#0000ff;font-family:Latin Modern Mono Prop Light;-inkscape-font-specification:'Latin Modern Mono Prop Light,'"
         id="path3135"
         inkscape:connector-curvature="0" />
      <path
         d="m 283.06922,530.3348 c 0,-3.25 -2.34,-3.25 -3.38,-3.25 -1.04,0 -3.25,0 -3.38,2.86 -0.26,3.38 -0.78001,8.97001 -10.27,13.52 -5.2,2.6 -12.87001,3.9 -19.5,3.9 -23.39998,0 -40.04,-16.77002 -40.04,-35.49 0,-18.71998 16.90002,-35.36 39.78,-35.36 7.27999,0 14.43,1.82 19.37,4.68 8.31999,4.94 9.75,10.66001 10.79,14.82 0.52,1.95 2.34,1.95 3.25,1.95 3.38,0 3.38,-2.21 3.38,-4.29 l 0,-18.59 c 0,-1.69 0,-4.29 -2.73,-4.29 -0.91,0 -1.43,0.26 -1.95,0.65 -1.82,3.25 -2.34,4.29001 -4.16,8.32 -6.62999,-5.19999 -16.38001,-8.97 -28.86,-8.97 -26.25997,0 -45.63,19.24002 -45.63,41.08 0,21.70998 18.98003,41.21 45.89,41.21 23.26998,0 37.44,-9.62001 37.44,-22.75"
         style="fill:#0000ff;font-family:Latin Modern Mono Prop Light;-inkscape-font-specification:'Latin Modern Mono Prop Light,'"
         id="path3137"
         inkscape:connector-curvature="0" />
      <path
         d="m 353.63484,523.9648 c 0,-15.72998 -12.74001,-28.86 -28.86,-28.86 -16.11998,0 -28.86,13.13002 -28.86,28.86 0,15.85999 13.00002,28.47 28.86,28.47 15.85999,0 28.86,-12.61001 28.86,-28.47 m -6.89,-0.91 c 0,12.73999 -9.75001,23.66 -21.97,23.66 -12.34998,0 -21.97,-10.92001 -21.97,-23.66 0,-12.86999 10.27002,-22.23 21.97,-22.23 11.69999,0 21.97,9.36001 21.97,22.23"
         style="fill:#0000ff;font-family:Latin Modern Mono Prop Light;-inkscape-font-specification:'Latin Modern Mono Prop Light,'"
         id="path3139"
         inkscape:connector-curvature="0" />
      <path
         d="m 432.33562,548.7948 c 0,-2.86 -2.6,-2.86 -4.16,-2.86 l -8.45,0 0,-32.11 c 0,-13.51999 -7.80001,-18.33 -18.07,-18.33 -7.40999,0 -13.91,2.73001 -20.93,9.23 0,-6.75999 0,-8.45 -4.16,-8.45 l -11.05,0 c -1.68999,0 -4.16,0 -4.16,2.99 0,2.86 2.60001,2.86 4.16,2.86 l 8.45,0 0,43.81 -8.45,0 c -1.68999,0 -4.16,0 -4.16,2.86 0,2.86 2.60001,2.86 4.16,2.86 l 23.66001,0 c 1.55999,0 4.15999,0 4.15999,-2.86 0,-2.86 -2.47,-2.86 -4.15999,-2.86 l -8.45001,0 0,-24.83 c 0,-14.94998 12.35001,-19.76 20.15001,-19.76 10.39998,0 12.08999,5.07001 12.08999,13.39 l 0,31.2 -8.45,0 c -1.55999,0 -4.15999,0 -4.15999,2.73 0,2.99 2.47,2.99 4.15999,2.99 l 23.66,0 c 1.56,0 4.16,0 4.16,-2.86"
         style="fill:#0000ff;font-family:Latin Modern Mono Prop Light;-inkscape-font-specification:'Latin Modern Mono Prop Light,'"
         id="path3141"
         inkscape:connector-curvature="0" />
      <path
         d="m 483.55359,536.0548 c 0,-12.86999 -15.21,-15.73 -19.24,-16.38 -11.17999,-2.08 -18.59,-4.03 -18.59,-9.88 0,-4.67999 4.42001,-8.97 15.34,-8.97 11.17999,0 11.83,5.98 12.22,9.75 0.26,1.17 0.78001,2.34 3.25,2.34 3.51,0 3.51,-2.21 3.51,-4.29 l 0,-9.23 c 0,-1.56 0,-4.29 -2.86,-4.29 -1.81999,0 -2.47,1.3 -3.12,3.25 -4.54999,-2.6 -8.84,-3.25 -12.74,-3.25 -18.06998,0 -21.32,9.88001 -21.32,14.69 0,11.04999 13.78001,13.65 24.96,15.73 l 1.56,0.26 c 5.07,1.3 11.31,4.42001 11.31,10.27 0,10.39999 -13.52,10.66 -15.6,10.66 -10.78999,0 -13.65,-7.15001 -15.47,-13.91 -0.39,-0.91 -1.04,-1.82 -3.25,-1.82 -3.50999,0 -3.51,2.34 -3.51,4.29 l 0,12.87 c 0,1.69 1e-5,4.29 2.86,4.29 2.6,0 3.25,-2.73 3.9,-5.46 5.59,4.55 10.53001,5.46 15.34,5.46 16.63999,0 21.45,-9.36001 21.45,-16.38"
         style="fill:#0000ff;font-family:Latin Modern Mono Prop Light;-inkscape-font-specification:'Latin Modern Mono Prop Light,'"
         id="path3143"
         inkscape:connector-curvature="0" />
      <path
         d="m 551.68172,523.9648 c 0,-15.72998 -12.74002,-28.86 -28.86,-28.86 -16.11999,0 -28.86,13.13002 -28.86,28.86 0,15.85999 13.00001,28.47 28.86,28.47 15.85998,0 28.86,-12.61001 28.86,-28.47 m -6.89,-0.91 c 0,12.73999 -9.75001,23.66 -21.97,23.66 -12.34999,0 -21.97,-10.92001 -21.97,-23.66 0,-12.86999 10.27001,-22.23 21.97,-22.23 11.69999,0 21.97,9.36001 21.97,22.23"
         style="fill:#0000ff;font-family:Latin Modern Mono Prop Light;-inkscape-font-specification:'Latin Modern Mono Prop Light,'"
         id="path3145"
         inkscape:connector-curvature="0" />
      <path
         d="m 592.0325,548.7948 c 0,-2.86 -2.6,-2.86 -4.16,-2.86 l -8.45,0 0,-69.42 c 0,-3.25 -0.65,-4.29 -4.16,-4.29 l -11.18,0 c -1.56,0 -4.16,0 -4.16,2.99 0,2.73 2.73,2.73 4.16,2.73 l 8.45,0 0,67.99 -8.45,0 c -1.56,0 -4.16,0 -4.16,2.86 0,2.86 2.73,2.86 4.16,2.86 l 23.79,0 c 1.43,0 4.16,0 4.16,-2.86"
         style="fill:#0000ff;font-family:Latin Modern Mono Prop Light;-inkscape-font-specification:'Latin Modern Mono Prop Light,'"
         id="path3147"
         inkscape:connector-curvature="0" />
      <path
         d="m 651.56844,538.2648 c 0,-2.6 -2.86,-2.6 -3.51,-2.6 -1.3,0 -2.34,0.13 -2.99,1.56 -3.25,7.66999 -10.14001,9.49 -14.82,9.49 -10.52999,0 -20.67,-7.67001 -22.88,-20.67 l 40.04,0 c 2.21,0 4.16,0 4.16,-3.77 0,-15.20998 -8.32002,-27.17 -24.18,-27.17 -15.07999,0 -26.91,13.13002 -26.91,28.6 0,15.85999 12.74001,28.73 28.99,28.73 15.98998,0 22.1,-10.92 22.1,-14.17 m -7.02,-17.81 -37.05,0 c 2.21,-12.08999 10.53001,-19.63 19.89,-19.63 7.27999,0 15.86,3.51002 17.16,19.63"
         style="fill:#0000ff;font-family:Latin Modern Mono Prop Light;-inkscape-font-specification:'Latin Modern Mono Prop Light,'"
         id="path3149"
         inkscape:connector-curvature="0" />
    </g>
  </g>
</svg>
