<?xml version="1.0" encoding="UTF-8" standalone="no"?>
<svg
   xmlns:dc="http://purl.org/dc/elements/1.1/"
   xmlns:cc="http://creativecommons.org/ns#"
   xmlns:rdf="http://www.w3.org/1999/02/22-rdf-syntax-ns#"
   xmlns:svg="http://www.w3.org/2000/svg"
   xmlns="http://www.w3.org/2000/svg"
   xmlns:sodipodi="http://sodipodi.sourceforge.net/DTD/sodipodi-0.dtd"
   xmlns:inkscape="http://www.inkscape.org/namespaces/inkscape"
   width="187.50354mm"
   height="226.96217mm"
   viewBox="0 0 187.50354 226.96217"
   version="1.1"
   id="svg327"
   sodipodi:docname="tux.svg"
   inkscape:version="1.0.2 (e86c870879, 2021-01-15)">
  <defs
     id="defs321" />
  <sodipodi:namedview
     id="base"
     pagecolor="#ffffff"
     bordercolor="#666666"
     borderopacity="1.0"
     inkscape:pageopacity="0.0"
     inkscape:pageshadow="2"
     inkscape:zoom="0.35"
     inkscape:cx="350.62722"
     inkscape:cy="471.76179"
     inkscape:document-units="mm"
     inkscape:current-layer="layer1"
     inkscape:document-rotation="0"
     showgrid="false"
     inkscape:window-width="1920"
     inkscape:window-height="1080"
     inkscape:window-x="0"
     inkscape:window-y="0"
     inkscape:window-maximized="1" />
  <metadata
     id="metadata324">
    <rdf:RDF>
      <cc:Work
         rdf:about="">
        <dc:format>image/svg+xml</dc:format>
        <dc:type
           rdf:resource="http://purl.org/dc/dcmitype/StillImage" />
        <dc:title></dc:title>
      </cc:Work>
    </rdf:RDF>
  </metadata>
  <g
     inkscape:label="Слой 1"
     inkscape:groupmode="layer"
     id="layer1"
     transform="translate(-13.063214,-23.346361)">
    <path
       fill="#000000"
       d="m 193.75101,202.4007 c -0.003,-0.003 -0.006,-0.006 -0.006,-0.008 -1.60576,-1.8124 -2.37067,-5.17261 -3.19326,-8.75243 -0.82047,-3.57716 -1.73831,-7.43479 -4.67518,-9.93511 -0.006,-0.006 -0.0135,-0.0106 -0.0185,-0.0161 -0.58208,-0.508 -1.18004,-0.93636 -1.78064,-1.29381 -0.60299,-0.35719 -1.21444,-0.64823 -1.82536,-0.87842 4.08252,-12.10738 2.48179,-24.16418 -1.64042,-35.05735 -5.05619,-13.37205 -13.88533,-25.02139 -20.62956,-32.99065 -7.54856,-9.52236 -14.9307,-18.560524 -14.78492,-31.9114 0.22463,-20.375562 2.24076,-58.160694 -33.61557,-58.210964 -1.45786,-0.003 -2.97921,0.0582 -4.56407,0.18521 -40.068479,3.225271 -29.440165,45.558588 -30.035485,59.732316 -0.73289,10.366375 -2.83368,18.536708 -9.964194,28.670258 -8.374067,9.95892 -20.169178,26.07999 -25.754535,42.86252 -2.63525,7.91898 -3.88937,15.99116 -2.73314,23.63233 -0.36248,0.32544 -0.70644,0.66702 -1.03717,1.01627 -2.457977,2.62731 -4.275657,5.80734 -6.299724,7.94782 -1.89177,1.88939 -4.58523,2.60642 -7.548557,3.66713 -2.96333,1.06389 -6.215057,2.62996 -8.188847,6.4188 0,0 0,0.003 -0.003,0.003 -0.003,0.005 -0.005,0.0132 -0.0106,0.0183 -0.928687,1.73302 -1.230317,3.60362 -1.230317,5.50069 0,1.75418 0.2593,3.53245 0.52123,5.24404 0.54505,3.5613 1.098017,6.92918 0.36513,9.21015 -2.34421,6.41086 -2.64583,10.84263 -0.99483,14.06023 1.656287,3.22263 5.056177,4.64344 8.900574,5.44777 7.688787,1.60338 18.100131,1.20651 26.304855,5.55626 l 0.70644,-1.33086 -0.6985,1.3335 c 8.784164,4.59317 17.690031,6.22327 24.794095,4.60111 5.154077,-1.17448 9.334487,-4.24365 11.482904,-8.96409 5.556247,-0.0265 11.654894,-2.38125 21.423301,-2.91809 6.62782,-0.53472 14.90663,2.35453 24.42898,1.82536 0.24871,1.03188 0.60881,2.02671 1.10067,2.97128 0.006,0.008 0.0106,0.0183 0.0161,0.0265 3.69067,7.38187 10.54867,10.75796 17.85937,10.18117 7.31811,-0.57706 15.09951,-4.89215 21.39157,-12.37722 l -1.15359,-0.96837 1.16179,0.95779 c 5.99546,-7.27075 15.94644,-10.28436 22.54779,-14.26369 3.29935,-1.98967 5.97429,-4.48178 6.18331,-8.10155 0.20585,-3.61686 -1.91876,-7.67028 -6.80296,-13.09159 z"
       id="path3"
       style="fill:#202020;fill-opacity:1;stroke-width:0.264583" />
    <path
       fill="#D6A312"
       d="m 197.54248,215.32031 c -0.127,2.23282 -1.7436,3.89202 -4.73075,5.69119 -5.96926,3.60098 -16.54995,6.73365 -23.3045,14.91721 -5.86872,6.98236 -13.02305,10.81618 -19.32252,11.31359 -6.29946,0.49742 -11.73427,-2.11666 -14.94102,-8.54869 l -0.006,-0.0132 -0.008,-0.0161 c -1.98993,-3.78354 -1.16178,-9.7499 0.51303,-16.04672 1.67481,-6.29445 4.08252,-12.76087 4.40531,-18.01285 v -0.0161 c 0.33841,-6.73074 0.71702,-12.61005 1.84653,-17.14765 1.13242,-4.53761 2.91306,-7.60678 6.06716,-9.33451 0.14817,-0.0794 0.29342,-0.1561 0.43894,-0.22754 0.35746,5.82877 3.24406,11.77687 8.34496,13.06249 5.58298,1.47135 13.62896,-3.31788 17.02621,-7.22578 0.67971,-0.0267 1.34117,-0.0608 1.98437,-0.0767 2.98185,-0.0717 5.47952,0.10054 8.0354,2.33363 l 0.008,0.008 0.008,0.006 c 1.9632,1.66423 2.89718,4.80748 3.70681,8.32644 0.80989,3.52187 1.45521,7.35542 3.88435,10.08857 l 0.003,0.003 0.003,0.006 c 4.66751,5.1779 6.1677,8.67569 6.03805,10.91142 z"
       id="path5"
       style="fill:#f8bf11;fill-opacity:1;stroke-width:0.264583" />
    <path
       fill="#D6A312"
       d="m 84.102392,231.82502 -0.003,0.0159 v 0.0185 c -0.53975,7.07497 -4.52967,10.9273 -10.657414,12.32695 -6.122457,1.39964 -14.427724,0.006 -22.719758,-4.33123 -0.003,0 -0.005,-0.003 -0.008,-0.003 -9.175744,-4.8604 -20.089798,-4.37621 -27.093315,-5.83936 -3.500437,-0.73025 -5.786437,-1.83092 -6.834187,-3.8735 -1.04775,-2.04523 -1.07156,-5.60917 1.15623,-11.68665 l 0.0106,-0.0267 0.008,-0.0265 c 1.10331,-3.3999 0.28575,-7.11994 -0.24871,-10.61245 -0.53446,-3.48959 -0.79639,-6.66724 0.39688,-8.87942 l 0.0106,-0.0212 c 1.52665,-2.94217 3.765017,-3.99521 6.543147,-4.99004 2.780767,-0.99748 6.074827,-1.78039 8.675674,-4.38944 l 0.0159,-0.0132 0.0132,-0.0132 c 2.40506,-2.53736 4.212157,-5.7203 6.326187,-7.97719 1.78329,-1.905 3.569217,-3.16707 6.260037,-3.18559 0.0317,0.003 0.0609,0.003 0.0926,0 0.47096,0.003 0.97102,0.0423 1.500187,0.12462 3.57187,0.53975 6.686017,3.03715 9.686387,7.10645 l 8.662454,15.78769 0.003,0.008 0.005,0.005 c 2.30452,4.81278 7.172847,10.10709 11.297704,15.50724 4.124847,5.39777 7.315724,10.81909 6.900327,14.96775 z"
       id="path7"
       style="fill:#f8bf11;fill-opacity:1;stroke-width:0.264583" />
    <path
       d="m 127.30355,84.647827 c -0.69586,-1.362605 -2.11667,-2.659063 -4.53496,-3.651251 l -0.005,-0.0026 -0.008,-0.0026 c -5.02973,-2.153707 -7.21254,-2.307166 -10.01977,-4.132791 -4.56935,-2.936874 -8.34496,-3.966104 -11.48292,-3.952875 -1.643057,0.0053 -3.111497,0.296333 -4.426477,0.751418 -3.823227,1.314978 -6.360577,4.058707 -7.950724,5.564187 l -0.003,0.0026 c 0,0.0026 -0.003,0.0026 -0.003,0.0053 -0.31221,0.296334 -0.71437,0.566209 -1.68804,1.280583 -0.9816,0.717021 -2.45269,1.796521 -4.569347,3.384021 -1.88119,1.410229 -2.49238,3.246437 -1.8415,5.397499 0.64823,2.151063 2.72256,4.632855 6.516677,6.778625 l 0.005,0.0053 0.008,0.0026 c 2.354797,1.383771 3.963457,3.249083 5.810247,4.733397 0.9234,0.74083 1.894417,1.40229 3.063877,1.90235 1.16946,0.50006 2.53471,0.83873 4.243917,0.93927 4.01108,0.23284 6.96383,-0.97102 9.56997,-2.46327 2.61144,-1.489601 4.82309,-3.31258 7.36071,-4.135435 l 0.005,-0.0026 0.006,-0.0026 c 5.20144,-1.624541 8.91117,-4.897438 10.07242,-8.006292 0.58209,-1.55575 0.56357,-3.032125 -0.12964,-4.394728 z"
       id="path9"
       style="fill:#f8bf11;fill-opacity:1;stroke-width:0.264583"
       fill="#D6A312" />
    <path
       d="m 114.10613,92.326034 c -4.13828,2.157069 -8.97202,4.773084 -14.115517,4.773084 -5.14085,0 -9.202207,-2.375958 -12.123204,-4.691063 -1.4605,-1.156229 -2.64583,-2.307166 -3.54012,-3.14325 -1.551607,-1.224764 -1.365747,-2.942611 -0.728257,-2.891896 1.068557,0.133398 1.230117,1.54032 1.903007,2.169584 0.91016,0.851959 2.05052,1.955271 3.43164,3.050645 2.762247,2.188105 6.445244,4.318 11.056934,4.318 4.603747,0 9.977897,-2.702763 13.258267,-4.542895 1.85849,-1.042521 4.22334,-2.911237 6.1533,-4.327901 1.47657,-1.083858 1.42273,-2.388977 2.64189,-2.246883 1.21917,0.142094 0.31728,1.444582 -1.39006,2.934633 -1.70734,1.490051 -4.37837,3.467092 -6.54788,4.597942 z"
       id="path11"
       inkscape:connector-curvature="0"
       style="fill:#202020;fill-opacity:1;stroke-width:0.264583"
       sodipodi:nodetypes="sscccccssszzs" />
    <path
       fill="#ffffff"
       d="m 177.47384,180.63341 c -0.57415,-0.0212 -1.14036,-0.0183 -1.69069,-0.005 -0.0503,0.003 -0.10054,0.003 -0.15346,0.003 1.42082,-4.48733 -1.72243,-7.79727 -10.09914,-11.58611 -8.68627,-3.82032 -15.60777,-3.44223 -16.77723,4.31007 -0.0741,0.40481 -0.13494,0.82021 -0.17992,1.23825 -0.65087,0.22754 -1.30175,0.51329 -1.95792,0.87048 -4.07722,2.23308 -6.30502,6.28121 -7.54327,11.25035 -1.2356,4.96359 -1.59279,10.96169 -1.93145,17.70593 0,0.003 0,0.003 0,0.005 -0.20902,3.38958 -1.60602,7.97719 -3.0189,12.83521 -14.22929,10.1518 -33.97779,14.54918 -50.747068,3.1033 -1.13507,-1.79653 -2.43946,-3.57717 -3.7809,-5.33401 -0.857247,-1.12157 -1.738307,-2.23573 -2.611437,-3.33613 1.7198,0.003 3.182937,-0.28072 4.365627,-0.81492 1.47108,-0.66939 2.50296,-1.73831 3.016247,-3.11441 1.02129,-2.74902 -0.005,-6.62781 -3.278187,-11.05959 -3.272887,-4.42913 -8.815904,-9.42711 -16.959781,-14.42244 0,0 0,0 0,-0.003 -5.984867,-3.72239 -9.329204,-8.28408 -10.895534,-13.23681 -1.568977,-4.95565 -1.349377,-10.31347 -0.14023,-15.60249 2.31775,-10.15207 8.270867,-20.02633 12.070284,-26.22287 1.02129,-0.75142 0.36513,1.397 -3.847037,9.21808 -3.772957,7.14932 -10.829394,23.64848 -1.16946,36.52867 0.25929,-9.16544 2.4474,-18.51317 6.122457,-27.25766 5.352517,-12.13115 16.547031,-33.17348 17.436031,-49.942773 0.460377,0.333374 2.034647,1.396999 2.735787,1.79652 0.003,0.0026 0.003,0.0026 0.005,0.0026 2.05317,1.209146 3.595687,2.976563 5.593297,4.582583 2.00289,1.60867 4.503197,2.99773 8.281444,3.21734 0.36248,0.0212 0.71702,0.0318 1.06363,0.0318 3.89467,0 6.93208,-1.27001 9.4615,-2.71728 2.74928,-1.57162 4.94506,-3.312581 7.0276,-3.989914 0.003,-0.0026 0.005,-0.0026 0.008,-0.0026 4.40002,-1.375833 7.89517,-3.809999 9.88457,-6.646333 3.41842,13.472587 11.3665,32.932697 16.47587,42.428597 2.71727,5.03767 8.1198,15.74272 10.45369,28.64117 1.47902,-0.0452 3.10885,0.16933 4.85246,0.61621 6.10393,-15.82474 -5.17525,-32.86656 -10.33463,-37.61319 -2.08227,-2.02142 -2.18281,-2.92629 -1.14829,-2.88396 5.59329,4.95036 12.94051,14.90135 15.61306,26.13556 1.21947,5.12207 1.47902,10.50926 0.17172,15.82474 0.63764,0.26458 1.28852,0.55298 1.94733,0.86545 9.79752,4.77018 13.41967,8.91885 11.67871,14.58093 z"
       id="path13"
       style="stroke-width:0.264583" />
    <path
       style="color:#000000;clip-rule:nonzero;display:inline;overflow:visible;visibility:visible;isolation:auto;mix-blend-mode:normal;color-interpolation:sRGB;color-interpolation-filters:linearRGB;solid-color:#000000;solid-opacity:1;fill:#e6e6e6;fill-opacity:1;fill-rule:nonzero;stroke:none;stroke-width:14.5521;stroke-linecap:butt;stroke-linejoin:miter;stroke-miterlimit:4;stroke-dasharray:none;stroke-dashoffset:0;stroke-opacity:1;color-rendering:auto;image-rendering:auto;shape-rendering:auto;text-rendering:auto;enable-background:accumulate"
       d="m 107.65243,137.85686 a 45.110034,66.762208 0 0 0 -41.872359,42.33491 l 0.99218,0.61753 v 0.0558 c 7.639154,4.85044 13.079581,9.71673 16.441891,14.26684 v 5.3e-4 h 5.2e-4 c 3.554097,4.81254 5.135617,9.49984 3.629757,13.55318 l -5.3e-4,0.002 -5.3e-4,0.002 c -0.76239,2.0439 -2.3866,3.68184 -4.399217,4.59766 l -0.004,0.002 -0.003,0.002 c -0.21152,0.0955 -0.4375,0.1662 -0.65681,0.24804 1.20385,1.57932 2.383037,3.20641 3.469557,4.87775 15.342531,10.21096 33.190541,6.4331 46.585261,-2.805 1.30817,-4.50784 2.49959,-8.71147 2.6634,-11.33937 0.33913,-6.75237 0.67975,-12.86825 2.00608,-18.19631 v -5.3e-4 c 1.33676,-5.36445 3.93707,-10.24632 8.83977,-12.93152 l 0.003,-0.002 0.003,-0.002 c 0.27554,-0.14999 0.55218,-0.23757 0.82838,-0.36794 0.0885,-0.53047 0.21115,-1.0412 0.36018,-1.53375 a 45.110034,66.762208 0 0 0 -38.88655,-33.3818 z m 38.49842,35.02165 -0.0139,0.0817 c 10e-4,-0.009 0.005,-0.0176 0.006,-0.0269 0.003,-0.0179 0.004,-0.0369 0.008,-0.0548 z"
       id="path4166" />
    <path
       d="m 127.76392,69.127369 c 0.0212,2.669645 -0.43921,4.942417 -1.45256,7.262811 -0.57679,1.322917 -1.24063,2.434168 -2.03703,3.397251 -0.27014,-0.129646 -0.55033,-0.254 -0.84164,-0.373062 -1.00806,-0.431271 -1.8997,-0.785814 -2.69848,-1.087439 -0.79931,-0.301625 -1.42291,-0.507722 -2.06611,-0.729972 0.46593,-0.563562 1.38377,-1.227667 1.72535,-2.061104 0.51858,-1.25677 0.77258,-2.484437 0.82021,-3.947583 0,-0.05821 0.0185,-0.108479 0.0185,-0.177271 0.0291,-1.402292 -0.15611,-2.600853 -0.56621,-3.828521 -0.42863,-1.288521 -0.97393,-2.214562 -1.76213,-2.9845 -0.7911,-0.769936 -1.57956,-1.119186 -2.52677,-1.150936 -0.045,-0.0026 -0.0873,-0.0026 -0.13229,-0.0026 -0.889,0.0026 -1.66158,0.309562 -2.46089,0.976311 -0.83873,0.701146 -1.4605,1.598084 -1.97882,2.846917 -0.51593,1.248834 -0.76993,2.487083 -0.82047,3.958167 -0.008,0.05821 -0.008,0.108479 -0.008,0.166687 -0.0185,0.809625 0.0344,1.550458 0.15875,2.270126 -1.82034,-0.907522 -4.14922,-1.569258 -5.75789,-1.952904 -0.0926,-0.695854 -0.14552,-1.412875 -0.16139,-2.164291 v -0.203729 c -0.0291,-2.661709 0.40745,-4.945063 1.43139,-7.262813 1.02394,-2.320396 2.29129,-3.98727 4.07432,-5.344583 1.78594,-1.354667 3.54039,-1.976438 5.6171,-1.997604 h 0.0979 c 2.032,0 3.77031,0.597958 5.55625,1.89177 1.8124,1.317626 3.11944,2.963334 4.17248,5.265209 1.03187,2.243666 1.52929,4.437062 1.57983,7.037917 -2.7e-4,0.06879 -2.7e-4,0.127 0.0182,0.195792 z"
       id="path15"
       inkscape:connector-curvature="0"
       style="fill:#ffffff;stroke-width:0.264583"
       sodipodi:nodetypes="ccccccccccccccccccccccccscccc" />
    <path
       d="m 97.051093,71.78643 c -0.26723,0.07673 -0.52652,0.15875 -0.78317,0.246063 -1.45521,0.502708 -2.610597,1.057502 -3.727147,1.795691 0.10848,-0.772584 0.12436,-1.555751 0.0397,-2.431522 -0.008,-0.04762 -0.008,-0.08731 -0.008,-0.134937 -0.11641,-1.161521 -0.36247,-2.135187 -0.77258,-3.119438 -0.43656,-1.023937 -0.92604,-1.74625 -1.56898,-2.301875 -0.58208,-0.502708 -1.132407,-0.735541 -1.740957,-0.73025 -0.0608,0 -0.12435,0.0026 -0.18785,0.0079 -0.68263,0.05821 -1.24883,0.391583 -1.78594,1.045104 -0.53446,0.650875 -0.88635,1.4605 -1.14035,2.534709 -0.254,1.071562 -0.32015,2.124603 -0.21431,3.333749 0,0.04762 0.0106,0.08731 0.0106,0.134938 0.11642,1.172104 0.35189,2.145771 0.76994,3.13002 0.42862,1.013355 0.92604,1.735667 1.56898,2.291292 0.10847,0.0926 0.21431,0.177271 0.32014,0.251354 -0.66675,0.515938 -1.11473,0.881893 -1.66506,1.284061 -0.35189,0.256646 -0.76994,0.563563 -1.25677,0.923395 -1.060977,-0.994832 -1.889117,-2.243667 -2.614077,-3.892021 -0.85725,-1.947332 -1.31498,-3.897312 -1.45257,-6.199187 v -0.01852 c -0.127,-2.301875 0.0979,-4.280958 0.73025,-6.328832 0.635,-2.047876 1.48167,-3.529543 2.711977,-4.746626 1.22767,-1.219728 2.46592,-1.833563 3.95817,-1.910292 0.11642,-0.0053 0.23019,-0.0079 0.34396,-0.0079 1.352017,0.0026 2.558517,0.452437 3.807347,1.449917 1.35467,1.082145 2.378607,2.465916 3.235857,4.415895 0.85989,1.949979 1.31762,3.899958 1.44462,6.201834 v 0.01852 c 0.0609,0.965728 0.0529,1.875895 -0.0238,2.756957 z"
       id="path17"
       inkscape:connector-curvature="0"
       style="fill:#ffffff;stroke-width:0.264583"
       sodipodi:nodetypes="cccccccccccccccccccccccccccccc" />
    <path
       sodipodi:nodetypes="aaaaaaa"
       inkscape:connector-curvature="0"
       id="path28396-7"
       d="m 103.8394,77.292327 c 0.17114,0.549339 1.05648,0.458288 1.568,0.721763 0.44884,0.231187 0.80985,0.737899 1.31453,0.752469 0.48165,0.01392 1.23126,-0.166801 1.29392,-0.644564 0.0828,-0.631198 -0.83895,-1.032312 -1.43207,-1.263552 -0.76325,-0.29758 -1.74111,-0.448559 -2.45708,-0.05046 -0.16407,0.09122 -0.34314,0.305138 -0.2873,0.484356 z"
       style="fill:#202020;fill-opacity:1;stroke:none;stroke-width:0.264583" />
    <path
       style="fill:#202020;fill-opacity:1;stroke:none;stroke-width:0.264583"
       d="m 98.610083,77.292327 c -0.17114,0.549339 -1.05648,0.458288 -1.56799,0.721763 -0.44885,0.231187 -0.80986,0.737899 -1.31453,0.752469 -0.48166,0.01392 -1.231257,-0.166801 -1.293917,-0.644564 -0.0828,-0.631198 0.838947,-1.032312 1.432067,-1.263552 0.76324,-0.29758 1.74111,-0.448559 2.45708,-0.05046 0.16406,0.09122 0.34313,0.305138 0.28729,0.484356 z"
       id="path5461"
       inkscape:connector-curvature="0"
       sodipodi:nodetypes="aaaaaaa" />
  </g>
</svg>
